<?xml version="1.0" encoding="utf-8"?>
<!-- Generator: Adobe Illustrator 16.0.0, SVG Export Plug-In . SVG Version: 6.00 Build 0)  -->
<!DOCTYPE svg PUBLIC "-//W3C//DTD SVG 1.1//EN" "http://www.w3.org/Graphics/SVG/1.1/DTD/svg11.dtd" [
	<!ENTITY ns_flows "http://ns.adobe.com/Flows/1.0/">
	<!ENTITY ns_extend "http://ns.adobe.com/Extensibility/1.0/">
	<!ENTITY ns_ai "http://ns.adobe.com/AdobeIllustrator/10.0/">
	<!ENTITY ns_graphs "http://ns.adobe.com/Graphs/1.0/">
]>
<svg version="1.1" xmlns:x="&ns_extend;" xmlns:i="&ns_ai;" xmlns:graph="&ns_graphs;"
	 xmlns="http://www.w3.org/2000/svg" xmlns:xlink="http://www.w3.org/1999/xlink" xmlns:a="http://ns.adobe.com/AdobeSVGViewerExtensions/3.0/"
	 x="0px" y="0px" width="428.33px" height="428.33px" viewBox="0 0 428.33 428.33" enable-background="new 0 0 428.33 428.33"
	 xml:space="preserve">
<g id="Layer_2">
</g>
<g id="Layer_1">
	<g>
		
			<rect x="75.106" y="75.616" transform="matrix(0.7071 0.7071 -0.7071 0.7071 213.3055 -88.0553)" fill="none" stroke="#FFFFFF" stroke-width="14" stroke-miterlimit="10" width="275.679" height="275.68"/>
		<path fill-rule="evenodd" clip-rule="evenodd" fill="#FFFFFF" stroke="#FFFFFF" stroke-miterlimit="10" d="M274.745,338.973
			c-0.075-4.242-0.135-8.484-0.54-12.725c-1.022-10.715,1.474-20.236,9.011-28.615c5.906-6.568,11.528-13.674,13.741-22.661
			c0.229-0.937,0.229-0.937,0.537-2.392c0-6.266,0.446-11.989,0.446-18.255c0.391,0.895-0.681-6.65-0.505-3.28
			c0.197,3.873-0.412-7.744-0.608-11.615c-0.442-8.783-0.817-17.571-1.33-26.351c-0.639-10.95-1.316-21.899-2.12-32.838
			c-0.512-6.975-0.603-13.985-1.677-20.916c-1.138,0-2.277,0-3.416,0c-0.178,1.122-0.421,2.238-0.521,3.367
			c-0.983,10.957-0.464,21.962-1.109,32.94c-0.719,12.193-0.852,24.419-1.301,36.629c-0.06,1.597-0.357,3.211-0.782,4.752
			c-0.449,1.641-1.853,2.025-3.396,1.928c-1.593-0.103-2.379-1.062-2.482-2.583c-0.086-1.228-0.096-2.463-0.096-3.693
			c-0.005-21.993-0.009-43.987,0.009-65.982c0.001-2.472-0.102-4.927-0.572-7.357c-1.33,0-2.658,0-3.987,0
			c-0.205,1.215-0.534,2.425-0.592,3.647c-0.585,12.594-1.174,25.187-1.669,37.785c-0.453,11.557-0.787,23.119-1.192,34.679
			c-0.054,1.539-0.108,3.306-2.211,3.34c-2.113,0.033-2.251-1.711-2.271-3.265c-0.054-4.459-0.47-8.919-0.476-13.356
			c-0.025-18.405-1.063-36.783-1.258-55.18c-0.027-2.567-0.087-5.123-0.584-7.649c-1.329,0-2.657,0-3.986,0
			c-1.074,9.431-0.556,18.92-1.04,28.379c-0.592,11.533-0.388,23.104-0.762,34.65c-0.141,4.35-0.493,8.696-0.533,13.056
			c-0.017,1.727-0.495,3.365-2.601,3.403c-2.267,0.041-2.422-1.758-2.433-3.421c-0.045-5.399-0.342-10.79-0.5-16.182
			c-0.421-14.2-0.368-28.414-0.733-42.615c-0.149-5.759-0.193-11.548-1.082-17.271c-1.14,0-2.278,0-3.417,0
			c-1.172,9.513-1.722,19.071-2.327,28.633c-0.603,9.558-1.487,19.101-2.421,28.635c-1.156,11.802-1.83,23.636-2.665,35.46
			c-0.199,2.838-0.478,5.674-0.83,8.498c-1.067,8.547,0.705,16.454,5.494,23.591c3.595,5.361,7.301,10.651,11.163,15.819
			c4.592,6.145,6.399,12.932,5.953,20.555c-0.588,10.033-0.876,20.084-1.257,30.127c-0.041,1.084-0.081,2.168-0.12,3.25"/>
		<path fill-rule="evenodd" clip-rule="evenodd" fill="none" stroke="#000000" stroke-miterlimit="10" d="M161.082,348.609
			c-0.01,0.217-0.021,0.434-0.031,0.65"/>
		<path fill-rule="evenodd" clip-rule="evenodd" fill="#FFFFFF" stroke="#FFFFFF" stroke-miterlimit="10" d="M175.837,363.658
			c-0.336-6.32-0.668-12.641-0.733-18.965c-0.065-6.275-0.69-12.518-0.643-18.791c0.057-7.533,2.587-13.857,7.832-19.424
			c16.6-17.613,26.12-38.368,27.765-62.749c0.614-9.104,0.501-18.075-0.564-26.896c-1.104,1.68-2.347,3.271-3.733,4.769
			c-4.133,4.464-8.905,7.423-14.294,8.9c-1.436,0.394-2.897,0.649-4.347,0.969c-2.136,0-4.274,0-6.411,0
			c-0.727-0.145-1.453-0.29-2.179-0.434c-6.561-1.287-12.299-4.672-17.15-10.16c-3.258-3.685-5.736-8.079-7.367-13.134
			c-1.552-4.81-2.284-9.805-1.965-14.959c0.322-5.214,1.597-10.169,3.087-15.043c1.728-5.647,3.779-11.119,5.993-16.511
			c0.204-0.496,0.419-0.984,0.625-1.478c-4.111,1.262-8.054,3.635-11.628,7.082c-11.507,11.098-17.087,25.169-20.124,40.357
			c-4.167,20.841-3.538,41.582,2.813,61.999c3.226,10.374,8.229,19.738,15.498,27.911c3.373,3.794,6.351,7.955,9.353,12.06
			c2.979,4.078,4.399,8.67,4.307,13.795c-0.154,8.557-0.49,17.105-0.888,25.652"/>
		<path fill-rule="evenodd" clip-rule="evenodd" fill="#FFFFFF" stroke="#FFFFFF" stroke-miterlimit="10" d="M190.994,208.707
			c-1.528,0-3.055,0-4.584,0c-0.52-0.104-1.038-0.208-1.558-0.312c-4.691-0.926-8.793-3.361-12.262-7.31
			c-2.329-2.652-4.101-5.813-5.267-9.451c-1.11-3.46-1.634-7.054-1.406-10.763c0.231-3.75,1.143-7.315,2.208-10.822
			c1.235-4.063,2.702-8,4.286-11.879c2.126-5.21,4.454-10.283,6.901-15.273c2.943-6.001,6.067-11.863,9.281-17.652
			c0.073,0,0.146,0,0.219,0c1.455,2.685,2.919,5.362,4.363,8.055c2.39,4.459,4.681,8.994,6.856,13.613
			c2.03,4.312,3.968,8.685,5.734,13.169c1.927,4.889,3.678,9.858,4.874,15.096c0.754,3.302,1.142,6.657,0.769,10.081
			c-0.709,6.51-3.062,11.972-7.085,16.345c-2.956,3.213-6.367,5.342-10.22,6.404C193.075,208.292,192.03,208.477,190.994,208.707z"
			/>
		<path fill-rule="evenodd" clip-rule="evenodd" fill="#FFFFFF" stroke="#FFFFFF" stroke-miterlimit="10" d="M234.048,142.339
			c-1.331,0-2.662,0-3.994,0c-0.452-0.09-0.904-0.182-1.357-0.271c-4.087-0.807-7.662-2.928-10.684-6.369
			c-2.029-2.311-3.572-5.064-4.588-8.234c-0.967-3.015-1.424-6.146-1.225-9.377c0.202-3.268,0.996-6.375,1.924-9.429
			c1.076-3.541,2.353-6.97,3.733-10.35c1.853-4.539,3.881-8.958,6.013-13.307c2.563-5.229,5.286-10.335,8.086-15.379
			c0.063,0,0.126,0,0.189,0c1.269,2.339,2.544,4.671,3.802,7.018c2.082,3.886,4.079,7.836,5.974,11.861
			c1.769,3.756,3.457,7.566,4.996,11.474c1.678,4.259,3.204,8.589,4.245,13.152c0.658,2.875,0.995,5.8,0.669,8.783
			c-0.618,5.672-2.667,10.43-6.173,14.241c-2.574,2.799-5.546,4.654-8.904,5.579C235.861,141.978,234.951,142.138,234.048,142.339z"
			/>
	</g>
</g>
</svg>
